Coordinates
version=1
nRows=13
nColumns=22
inDegrees=yes

Units are S.I. units (second, meters, Newtons, ...)
If the header above contains a line with 'inDegrees', this indicates whether rotational values are in degrees (yes) or radians (no).

endheader
time	pelvis_tilt	pelvis_list	pelvis_rotation	pelvis_tx	pelvis_ty	pelvis_tz	hip_flexion_r	hip_adduction_r	hip_rotation_r	knee_angle_r	ankle_angle_r	subtalar_angle_r	hip_flexion_l	hip_adduction_l	hip_rotation_l	knee_angle_l	ankle_angle_l	subtalar_angle_l	lumbar_extension	lumbar_bending	lumbar_rotation
      1.28000000	      1.25071944	      3.82829954	    180.03943270	     -1.27204334	      1.02155759	     -0.20255249	      7.48000791	      7.76648845	     -9.19267451	    -12.12594608	      6.28416115	     -3.15039741	     15.92447591	     -5.01574501	     -1.73976489	    -28.04826728	      9.89754743	      3.31439729	    -14.11030564	      5.57661610	      4.97297925
      1.29000000	      1.32198246	      3.78465052	    180.11719786	     -1.26955339	      1.02154211	     -0.20295121	      7.61314766	      7.74676492	     -9.30762113	    -11.92966910	      6.08246722	     -3.17850096	     16.18698917	     -5.02205617	     -1.80924423	    -28.16957641	     10.27846805	      3.78025171	    -14.24731131	      5.58938790	      5.14543928
      1.30000000	      1.37450936	      3.74300282	    180.18684588	     -1.26708926	      1.02156147	     -0.20333457	      7.71975202	      7.73031067	     -9.40734095	    -11.72467351	      5.87387952	     -3.20583645	     16.38988937	     -5.03421452	     -1.90521338	    -28.28791743	     10.73776675	      4.22433623	    -14.38657521	      5.59903150	      5.30682229
      1.31000000	      1.40761123	      3.71519803	    180.24694759	     -1.26466576	      1.02161309	     -0.20372280	      7.79514532	      7.73141709	     -9.49908592	    -11.50349858	      5.67444078	     -3.22331758	     16.53648905	     -5.06686226	     -2.02200767	    -28.42981425	     11.25186059	      4.53407717	    -14.52413791	      5.61684681	      5.46182507
      1.32000000	      1.43202698	      3.66556694	    180.30694539	     -1.26223292	      1.02168578	     -0.20409060	      7.87782351	      7.70590842	     -9.58379176	    -11.31457072	      5.45439127	     -3.25055069	     16.65082489	     -5.07848944	     -2.15874818	    -28.62585546	     11.76547771	      4.89530374	    -14.65264154	      5.60344545	      5.57463036
      1.33000000	      1.44093686	      3.63952278	    180.36782139	     -1.25985190	      1.02177679	     -0.20444939	      7.93169050	      7.70633934	     -9.67366781	    -11.10729915	      5.25885090	     -3.25700177	     16.73260948	     -5.12217452	     -2.31489457	    -28.90946372	     12.27703758	      5.00156679	    -14.76946561	      5.61214441	      5.68208470
      1.34000000	      1.43567379	      3.61018250	    180.43225202	     -1.25746918	      1.02188560	     -0.20479603	      7.98718901	      7.69961119	     -9.76882898	    -10.93280228	      5.05499553	     -3.25739349	     16.79259638	     -5.16807917	     -2.48612527	    -29.30542384	     12.76094586	      5.01542568	    -14.88143712	      5.61044715	      5.76243790
      1.35000000	      1.47555831	      3.25583737	    180.47565093	     -1.25502357	      1.02200048	     -0.20363011	      7.99298246	      7.31027635	     -9.30592160	    -10.60171578	      4.96216397	     -3.36845639	     16.81459423	     -4.73209199	     -2.64239529	    -29.70024887	     13.01385701	      4.82701945	    -14.92373242	      5.42935200	      5.73407126
      1.36000000	      1.40615748	      3.26962135	    180.59944574	     -1.25277593	      1.02217722	     -0.20385614	      7.96216684	      7.34828769	     -9.32329620	    -10.41093283	      4.75770101	     -3.39051590	     16.82332743	     -4.82811747	     -2.80455161	    -30.40204517	     13.37908537	      4.55660687	    -15.04525618	      5.48523038	      5.71015243
      1.37000000	      1.35601647	      3.27607608	    180.70825683	     -1.25051340	      1.02230794	     -0.20410843	      7.96200436	      7.37604166	     -9.38080856	    -10.23568136	      4.56136496	     -3.39709774	     16.85563498	     -4.92585314	     -2.97563861	    -31.25450667	     13.66813724	      4.09083742	    -15.12460022	      5.51925221	      5.67881922
      1.38000000	      1.31944615	      3.30332324	    180.81551053	     -1.24818314	      1.02238365	     -0.20434865	      7.99676634	      7.42174637	     -9.44090865	    -10.09001264	      4.36411854	     -3.38969936	     16.92119089	     -5.04559494	     -3.11230852	    -32.27265032	     13.90706435	      3.63620179	    -15.17788707	      5.57546449	      5.62148685
      1.39000000	      1.29363681	      3.33476918	    180.91463793	     -1.24581279	      1.02241113	     -0.20456272	      8.06433033	      7.46406349	     -9.53856272	     -9.97864240	      4.19369492	     -3.38011079	     17.00155406	     -5.16558277	     -3.21570365	    -33.42561709	     14.08676903	      3.11945904	    -15.20637100	      5.63595547	      5.55974811
      1.40000000	      1.23692464	      3.39195027	    181.00225251	     -1.24342858	      1.02245396	     -0.20477674	      8.10614858	      7.53367110	     -9.63451660	     -9.87766331	      4.03678692	     -3.36261852	     17.04616249	     -5.30893250	     -3.27541313	    -34.69601757	     14.23705098	      2.80629631	    -15.25880938	      5.71771666	      5.51238886
